<!DOCTYPE svg PUBLIC "-//W3C//DTD SVG 1.1//EN" "http://www.w3.org/Graphics/SVG/1.1/DTD/svg11.dtd">

<!-- Uploaded to: SVG Repo, www.svgrepo.com, Transformed by: SVG Repo Mixer Tools -->
<svg fill="#000000" height="256px" width="760px" version="1.1" id="Layer_1" xmlns="http://www.w3.org/2000/svg" xmlns:xlink="http://www.w3.org/1999/xlink" viewBox="0 0 512.001 512.001" xml:space="preserve">

<g id="SVGRepo_bgCarrier" stroke-width="0"/>

<g id="SVGRepo_tracerCarrier" stroke-linecap="round" stroke-linejoin="round"/>

<g id="SVGRepo_iconCarrier"> <g> <g> <path d="M461.98,62.35h-38.056v-9.585C423.923,23.67,400.253,0,371.158,0s-52.765,23.67-52.765,52.765v9.585H50.022 c-5.632,0-10.199,4.566-10.199,10.199v305.25c0,2.705,1.075,5.299,2.987,7.212l124.002,124.003 c1.913,1.912,4.507,2.987,7.212,2.987H461.98c5.632,0,10.199-4.566,10.199-10.199V72.549 C472.179,66.916,467.613,62.35,461.98,62.35z M338.79,52.765h0.001c0-17.847,14.52-32.366,32.366-32.366 s32.366,14.52,32.366,32.366v9.585H338.79V52.765z M71.66,385.013h94.273l0.225,94.499L71.66,385.013z M451.78,491.602H186.586 l-0.278-116.813c-0.013-5.624-4.575-10.175-10.199-10.175H60.221V82.748h343.304v96.514c0,6.277-5.107,11.383-11.383,11.383 s-11.383-5.107-11.383-11.383v-25.18c0-5.633-4.567-10.199-10.199-10.199s-10.199,4.566-10.199,10.199v25.18 c0,17.524,14.258,31.782,31.782,31.782c17.524,0,31.782-14.257,31.782-31.782V82.748h27.857V491.602z"/> </g> </g> <g> <g> <path d="M370.558,105.052c-5.632,0-10.199,4.566-10.199,10.199v5.995c0,5.633,4.567,10.199,10.199,10.199 c5.632,0,10.199-4.566,10.199-10.199v-5.995C380.757,109.618,376.19,105.052,370.558,105.052z"/> </g> </g> </g>

</svg>